<svg id="visual" viewBox="0 300 900 300" width="900" height="300"  xmlns="http://www.w3.org/2000/svg" xmlns:xlink="http://www.w3.org/1999/xlink" version="1.1">
<rect x="0" y="0" width="900" height="300" fill="#8EC2E0"></rect>
<path d="M0 389L25 391.8C50 394.7 100 400.3 150 406.5C200 412.7 250 419.3 300 416C350 412.7 400 399.3 450 395.8C500 392.3 550 398.7 600 401.2C650 403.7 700 402.3 750 406.7C800 411 850 421 875 426L900 431L900 601L875 601C850 601 800 601 750 601C700 601 650 601 600 601C550 601 500 601 450 601C400 601 350 601 300 601C250 601 200 601 150 601C100 601 50 601 25 601L0 601Z" fill="#8ec2e0"></path><path d="M0 422L25 417.2C50 412.3 100 402.7 150 408.8C200 415 250 437 300 443.8C350 450.7 400 442.3 450 437.2C500 432 550 430 600 427.3C650 424.7 700 421.3 750 420.3C800 419.3 850 420.7 875 421.3L900 422L900 601L875 601C850 601 800 601 750 601C700 601 650 601 600 601C550 601 500 601 450 601C400 601 350 601 300 601C250 601 200 601 150 601C100 601 50 601 25 601L0 601Z" fill="#98bbe4"></path><path d="M0 448L25 451.5C50 455 100 462 150 463.7C200 465.3 250 461.7 300 458C350 454.3 400 450.7 450 447.7C500 444.7 550 442.3 600 436.7C650 431 700 422 750 420.8C800 419.7 850 426.3 875 429.7L900 433L900 601L875 601C850 601 800 601 750 601C700 601 650 601 600 601C550 601 500 601 450 601C400 601 350 601 300 601C250 601 200 601 150 601C100 601 50 601 25 601L0 601Z" fill="#a8b2e2"></path><path d="M0 452L25 452.8C50 453.7 100 455.3 150 460C200 464.7 250 472.3 300 471.7C350 471 400 462 450 456.7C500 451.3 550 449.7 600 457.3C650 465 700 482 750 482.3C800 482.7 850 466.3 875 458.2L900 450L900 601L875 601C850 601 800 601 750 601C700 601 650 601 600 601C550 601 500 601 450 601C400 601 350 601 300 601C250 601 200 601 150 601C100 601 50 601 25 601L0 601Z" fill="#bba9da"></path><path d="M0 520L25 513.2C50 506.3 100 492.7 150 491.7C200 490.7 250 502.3 300 507.7C350 513 400 512 450 511.2C500 510.3 550 509.7 600 510.2C650 510.7 700 512.3 750 511.8C800 511.3 850 508.7 875 507.3L900 506L900 601L875 601C850 601 800 601 750 601C700 601 650 601 600 601C550 601 500 601 450 601C400 601 350 601 300 601C250 601 200 601 150 601C100 601 50 601 25 601L0 601Z" fill="#cc9fcc"></path><path d="M0 513L25 515.2C50 517.3 100 521.7 150 525.7C200 529.7 250 533.3 300 536.5C350 539.7 400 542.3 450 542.8C500 543.3 550 541.7 600 538C650 534.3 700 528.7 750 530.7C800 532.7 850 542.3 875 547.2L900 552L900 601L875 601C850 601 800 601 750 601C700 601 650 601 600 601C550 601 500 601 450 601C400 601 350 601 300 601C250 601 200 601 150 601C100 601 50 601 25 601L0 601Z" fill="#d996b8"></path><path d="M0 554L25 554.8C50 555.7 100 557.3 150 558C200 558.7 250 558.3 300 557.7C350 557 400 556 450 557.7C500 559.3 550 563.7 600 562.7C650 561.7 700 555.3 750 555.3C800 555.3 850 561.7 875 564.8L900 568L900 601L875 601C850 601 800 601 750 601C700 601 650 601 600 601C550 601 500 601 450 601C400 601 350 601 300 601C250 601 200 601 150 601C100 601 50 601 25 601L0 601Z" fill="#e090a1"></path></svg>