<svg id="visual" viewBox="0 300 900 300" width="900" height="300" xmlns="http://www.w3.org/2000/svg" xmlns:xlink="http://www.w3.org/1999/xlink" version="1.1">
<rect x="0" y="0" width="900" height="300" fill="#0ea5e9"></rect>
<path d="M0 348L25 341.8C50 335.7 100 323.3 150 324.2C200 325 250 339 300 348.3C350 357.7 400 362.3 450 355C500 347.7 550 328.3 600 329.8C650 331.3 700 353.7 750 363.2C800 372.7 850 369.3 875 367.7L900 366L900 601L875 601C850 601 800 601 750 601C700 601 650 601 600 601C550 601 500 601 450 601C400 601 350 601 300 601C250 601 200 601 150 601C100 601 50 601 25 601L0 601Z" fill="#3242e6"></path>
<path d="M0 375L25 388.3C50 401.7 100 428.3 150 436.8C200 445.3 250 435.7 300 426.2C350 416.7 400 407.3 450 406.3C500 405.3 550 412.7 600 406.2C650 399.7 700 379.3 750 376.7C800 374 850 389 875 396.5L900 404L900 601L875 601C850 601 800 601 750 601C700 601 650 601 600 601C550 601 500 601 450 601C400 601 350 601 300 601C250 601 200 601 150 601C100 601 50 601 25 601L0 601Z" fill="#8e36d3"></path>
<path d="M0 486L25 474.8C50 463.7 100 441.3 150 437.8C200 434.3 250 449.7 300 458.3C350 467 400 469 450 466.7C500 464.3 550 457.7 600 451.8C650 446 700 441 750 434.3C800 427.7 850 419.3 875 415.2L900 411L900 601L875 601C850 601 800 601 750 601C700 601 650 601 600 601C550 601 500 601 450 601C400 601 350 601 300 601C250 601 200 601 150 601C100 601 50 601 25 601L0 601Z" fill="#bb30bf"></path>
<path d="M0 527L25 526.7C50 526.3 100 525.7 150 519.2C200 512.7 250 500.3 300 498.7C350 497 400 506 450 512.5C500 519 550 523 600 525C650 527 700 527 750 527.7C800 528.3 850 529.7 875 530.3L900 531L900 601L875 601C850 601 800 601 750 601C700 601 650 601 600 601C550 601 500 601 450 601C400 601 350 601 300 601C250 601 200 601 150 601C100 601 50 601 25 601L0 601Z" fill="#d936ab"></path>
<path d="M0 559L25 554C50 549 100 539 150 538.2C200 537.3 250 545.7 300 549.2C350 552.7 400 551.3 450 553.7C500 556 550 562 600 563.5C650 565 700 562 750 556.7C800 551.3 850 543.7 875 539.8L900 536L900 601L875 601C850 601 800 601 750 601C700 601 650 601 600 601C550 601 500 601 450 601C400 601 350 601 300 601C250 601 200 601 150 601C100 601 50 601 25 601L0 601Z" fill="#ec4899"></path>
</svg>